{"title":"Wild.Card.2015.WEBRip.480p.x264.AAC-VYTO [P2PDL]","uid":11674240,"size":325613284,"categoryP":"video","categoryS":"movies","magnet":"?xt=urn:btih:9eb7249593048b96e4bbfcdd93313646acab4c54&amp;dn=Wild.Card.2015.WEBRip.480p.x264.AAC-VYTO+%5BP2PDL%5D&amp;tr=udp%3A%2F%2Ftracker.openbittorrent.com%3A80&amp;tr=udp%3A%2F%2Fopen.demonii.com%3A1337&amp;tr=udp%3A%2F%2Ftracker.coppersurfer.tk%3A6969&amp;tr=udp%3A%2F%2Fexodus.desync.com%3A6969","seeders":5,"leechers":1,"uploader":"ValidusVyto","files":6,"time":1422790032,"description":"Wild.Card.2015.WEBRip.480p.x264.AAC-VYTO\n\n\nGenre: Action | Crime | Drama\nIMDb: http://www.imdb.com/title/tt2231253/\n\nGeneral\nFormat                      : MPEG-4\nFile size                   : 305 MiB\nDuration                    : 1h 32mn\nOverall bit rate mode       : Variable\nOverall bit rate            : 462 Kbps\n\nVideo\nFormat                      : AVC\nBit rate                    : 427 Kbps\nWidth                       : 720 pixels\nHeight                      : 304 pixels\nDisplay aspect ratio        : 2.35:1\nFrame rate mode             : Constant\nChroma subsampling          : 4:2:0\nBit depth                   : 8 bits\nStream size                 : 282 MiB (92%)\nWriting library             : x264 core 142 r2491\n\nAudio\nFormat                      : AAC\nBit rate mode               : Variable\nBit rate                    : 32.0 Kbps\nChannel(s)                  : 2 channels \nChannel positions           : Front: L R \nSampling rate               : 48.0 KHz \nStream size                 : 21.1 MiB (7%)\nLanguage                    : English\n\nSubtitle                    : Yes(English)\nSource                      : 720p.WEB-DL.DD5.1.H264\n\n----------------------------------------------------------------------------------------------------\n\n\nEncoder Notes: Looking For Early Access To Anything You Can Provide DVDScr, R5, DVDR, BluRay, Direct\nAudio, Music Releases and Seedboxes. If You Got anything to offer please contact us.\n\nWe require dedicated servers, so as to do more and fast releases of movies.\nSupport us by donating LC - LezHMTo2cYaiztCCcWxB4cNFVNVpWW3GSx","torrent":{"xt":"urn:btih:9eb7249593048b96e4bbfcdd93313646acab4c54","amp;dn":"Wild.Card.2015.WEBRip.480p.x264.AAC-VYTO+%5BP2PDL%5D","amp;tr":["udp%3A%2F%2Ftracker.openbittorrent.com%3A80","udp%3A%2F%2Fopen.demonii.com%3A1337","udp%3A%2F%2Ftracker.coppersurfer.tk%3A6969","udp%3A%2F%2Fexodus.desync.com%3A6969"],"infoHash":"9eb7249593048b96e4bbfcdd93313646acab4c54","infoHashBuffer":{"type":"Buffer","data":[158,183,36,149,147,4,139,150,228,187,252,221,147,49,54,70,172,171,76,84]},"announce":[],"urlList":[]}}